<svg xmlns="http://www.w3.org/2000/svg" version="1.1" xmlns:xlink="http://www.w3.org/1999/xlink" xmlns:svgjs="http://svgjs.dev/svgjs" width="100" height="100" viewBox="0 0 1500 939"><g transform="matrix(1,0,0,1,-0.9090909090909918,-1.5145161290323017)"><svg viewBox="0 0 396 248" data-background-color="#27293d" preserveAspectRatio="xMidYMid meet" height="939" width="1500" xmlns="http://www.w3.org/2000/svg" xmlns:xlink="http://www.w3.org/1999/xlink"><g id="tight-bounds" transform="matrix(1,0,0,1,0.2400000000000091,0.4000000000000057)"><svg viewBox="0 0 395.52 247.2" height="247.2" width="395.52"><g><svg></svg></g><g><svg viewBox="0 0 395.52 247.2" height="247.2" width="395.52"><g transform="matrix(1,0,0,1,133.32366033519554,47.21520000000001)"><svg viewBox="0 0 128.87267932960893 152.76959999999997" height="152.76959999999997" width="128.87267932960893"><g><svg viewBox="0 0 128.87267932960893 152.76959999999997" height="152.76959999999997" width="128.87267932960893"><g><svg viewBox="0 0 128.87267932960893 152.76959999999997" height="152.76959999999997" width="128.87267932960893"><g><svg viewBox="0 0 128.87267932960893 152.76959999999997" height="152.76959999999997" width="128.87267932960893"><g id="textblocktransform"><svg viewBox="0 0 128.87267932960893 152.76959999999997" height="152.76959999999997" width="128.87267932960893" id="textblock"><g><svg viewBox="0 0 128.87267932960893 152.76959999999997" height="152.76959999999997" width="128.87267932960893"><g transform="matrix(1,0,0,1,0,0)"><svg width="128.87267932960893" viewBox="1.45 -35.8 30.2 35.8" height="152.76959999999997" data-palette-color="#ffffff"><path d="M31.65-35.8L19.25 0 14.3 0 1.45-35.8 6.35-35.8 16.9-5.5 26.8-35.8 31.65-35.8Z" opacity="1" transform="matrix(1,0,0,1,0,0)" fill="#ffffff" class="wordmark-text-0" data-fill-palette-color="primary" id="text-0"></path></svg></g></svg></g></svg></g></svg></g></svg></g></svg></g></svg></g><path d="M79.895 41.215L79.895 0 327.095 0 327.095 247.2 79.895 247.2 79.895 205.985 93.672 205.985 93.672 233.423 313.318 233.423 313.318 13.777 93.672 13.777 93.672 41.215Z" fill="#ffffff" stroke="transparent" data-fill-palette-color="tertiary"></path></svg></g><defs></defs></svg><rect width="395.52" height="247.2" fill="none" stroke="none" visibility="hidden"></rect></g></svg></g></svg>